<svg width="28" height="26" viewBox="0 0 28 26" fill="none" xmlns="http://www.w3.org/2000/svg">
<g clip-path="url(#clip0_32_2)">
<path d="M0.587402 11.5875C-0.193848 12.3687 -0.193848 13.6375 0.587402 14.4187L10.5874 24.4187C11.3687 25.2 12.6374 25.2 13.4187 24.4187C14.1999 23.6375 14.1999 22.3687 13.4187 21.5875L6.8249 15H25.9999C27.1062 15 27.9999 14.1062 27.9999 13C27.9999 11.8937 27.1062 11 25.9999 11H6.83115L13.4124 4.41249C14.1937 3.63124 14.1937 2.36249 13.4124 1.58124C12.6312 0.799988 11.3624 0.799988 10.5812 1.58124L0.581152 11.5812L0.587402 11.5875Z" fill="#2D3133"/>
</g>
<defs>
<clipPath id="clip0_32_2">
<rect width="28" height="26" fill="white"/>
</clipPath>
</defs>
</svg>
