<svg width="150" height="172" viewBox="0 0 150 172" fill="none" xmlns="http://www.w3.org/2000/svg">
<g clip-path="url(#clip0_75_49)">
<path d="M42.8571 0C48.7835 0 53.5714 4.80391 53.5714 10.75V21.5H96.4286V10.75C96.4286 4.80391 101.217 0 107.143 0C113.069 0 117.857 4.80391 117.857 10.75V21.5H133.929C142.801 21.5 150 28.7227 150 37.625V53.75H0V37.625C0 28.7227 7.19866 21.5 16.0714 21.5H32.1429V10.75C32.1429 4.80391 36.9308 0 42.8571 0ZM0 64.5H150V155.875C150 164.777 142.801 172 133.929 172H16.0714C7.19866 172 0 164.777 0 155.875V64.5ZM21.4286 91.375V102.125C21.4286 105.081 23.8393 107.5 26.7857 107.5H37.5C40.4464 107.5 42.8571 105.081 42.8571 102.125V91.375C42.8571 88.4187 40.4464 86 37.5 86H26.7857C23.8393 86 21.4286 88.4187 21.4286 91.375ZM64.2857 91.375V102.125C64.2857 105.081 66.6964 107.5 69.6429 107.5H80.3571C83.3036 107.5 85.7143 105.081 85.7143 102.125V91.375C85.7143 88.4187 83.3036 86 80.3571 86H69.6429C66.6964 86 64.2857 88.4187 64.2857 91.375ZM112.5 86C109.554 86 107.143 88.4187 107.143 91.375V102.125C107.143 105.081 109.554 107.5 112.5 107.5H123.214C126.161 107.5 128.571 105.081 128.571 102.125V91.375C128.571 88.4187 126.161 86 123.214 86H112.5ZM21.4286 134.375V145.125C21.4286 148.081 23.8393 150.5 26.7857 150.5H37.5C40.4464 150.5 42.8571 148.081 42.8571 145.125V134.375C42.8571 131.419 40.4464 129 37.5 129H26.7857C23.8393 129 21.4286 131.419 21.4286 134.375ZM69.6429 129C66.6964 129 64.2857 131.419 64.2857 134.375V145.125C64.2857 148.081 66.6964 150.5 69.6429 150.5H80.3571C83.3036 150.5 85.7143 148.081 85.7143 145.125V134.375C85.7143 131.419 83.3036 129 80.3571 129H69.6429ZM107.143 134.375V145.125C107.143 148.081 109.554 150.5 112.5 150.5H123.214C126.161 150.5 128.571 148.081 128.571 145.125V134.375C128.571 131.419 126.161 129 123.214 129H112.5C109.554 129 107.143 131.419 107.143 134.375Z" fill="#01456B"/>
</g>
<defs>
<clipPath id="clip0_75_49">
<rect width="150" height="172" fill="white"/>
</clipPath>
</defs>
</svg>
