<svg width="150" height="150" viewBox="0 0 150 150" fill="none" xmlns="http://www.w3.org/2000/svg">
<g clip-path="url(#clip0_75_55)">
<path d="M21.9727 21.9727L12.0117 12.0117C7.58789 7.58789 0 10.7227 0 16.9629V49.2188C0 53.1152 3.13477 56.25 7.03125 56.25H39.2871C45.5566 56.25 48.6914 48.6621 44.2676 44.2383L35.2441 35.2148C45.4102 25.0488 59.4727 18.75 75 18.75C106.055 18.75 131.25 43.9453 131.25 75C131.25 106.055 106.055 131.25 75 131.25C63.0469 131.25 51.9727 127.529 42.8613 121.172C38.6133 118.213 32.7832 119.238 29.7949 123.486C26.8066 127.734 27.8613 133.564 32.1094 136.553C44.2969 145.02 59.0918 150 75 150C116.426 150 150 116.426 150 75C150 33.5742 116.426 0 75 0C54.2871 0 35.5371 8.4082 21.9727 21.9727ZM75 37.5C71.1035 37.5 67.9688 40.6348 67.9688 44.5312V75C67.9688 76.875 68.7012 78.6621 70.0195 79.9805L91.1133 101.074C93.8672 103.828 98.3203 103.828 101.045 101.074C103.77 98.3203 103.799 93.8672 101.045 91.1426L82.002 72.0996V44.5312C82.002 40.6348 78.8672 37.5 74.9707 37.5H75Z" fill="#01456B"/>
</g>
<defs>
<clipPath id="clip0_75_55">
<rect width="150" height="150" fill="white"/>
</clipPath>
</defs>
</svg>
