<svg width="32" height="32" viewBox="0 0 32 32" fill="none" xmlns="http://www.w3.org/2000/svg">
<g clip-path="url(#clip0_35_77)">
<path fill-rule="evenodd" clip-rule="evenodd" d="M14.4855 9.67782e-08C12.9807 9.67782e-08 11.6974 1.088 11.4496 2.57149L11.1575 4.33067C11.1247 4.52759 10.9688 4.75733 10.6701 4.90174C10.1078 5.17204 9.56692 5.48474 9.05208 5.83713C8.77967 6.02585 8.50398 6.0439 8.31362 5.97333L6.64469 5.34646C5.96242 5.09085 5.21158 5.08564 4.52583 5.33175C3.84007 5.57787 3.2639 6.05934 2.89987 6.69046L1.38685 9.31118C1.02269 9.94192 0.894072 10.6814 1.02388 11.3981C1.15369 12.1147 1.53351 12.7621 2.09577 13.225L3.47423 14.3606C3.63013 14.4886 3.75321 14.7364 3.72695 15.0663C3.68019 15.6884 3.68019 16.3132 3.72695 16.9354C3.75157 17.2636 3.63013 17.513 3.47587 17.641L2.09577 18.7766C1.53351 19.2396 1.15369 19.8869 1.02388 20.6036C0.894072 21.3202 1.02269 22.0597 1.38685 22.6905L2.89987 25.3112C3.26416 25.942 3.84044 26.4231 4.52617 26.6689C5.21191 26.9147 5.96261 26.9093 6.64469 26.6535L8.3169 26.0267C8.50562 25.9561 8.78131 25.9758 9.05536 26.1612C9.56736 26.5124 10.1073 26.8258 10.6718 27.0966C10.9704 27.241 11.1263 27.4708 11.1592 27.671L11.4513 29.4285C11.6991 30.912 12.9823 32 14.4872 32H17.5132C19.0164 32 20.3013 30.912 20.5491 29.4285L20.8412 27.6693C20.874 27.4724 21.0283 27.2427 21.3286 27.0966C21.8931 26.8258 22.433 26.5124 22.945 26.1612C23.2191 25.9742 23.4947 25.9561 23.6835 26.0267L25.3573 26.6535C26.0392 26.9083 26.7893 26.913 27.4743 26.6669C28.1593 26.4209 28.7349 25.9399 29.0988 25.3095L30.6135 22.6888C30.9777 22.0581 31.1063 21.3186 30.9765 20.6019C30.8467 19.8853 30.4669 19.2379 29.9046 18.775L28.5261 17.6394C28.3702 17.5114 28.2472 17.2636 28.2734 16.9337C28.3201 16.3116 28.3201 15.6868 28.2734 15.0646C28.2472 14.7364 28.3702 14.487 28.5245 14.359L29.903 13.2234C31.0648 12.2683 31.3651 10.6142 30.6135 9.30954L29.1005 6.68882C28.7362 6.05799 28.1599 5.57686 27.4742 5.33106C26.7885 5.08525 26.0378 5.09071 25.3557 5.34646L23.6818 5.97333C23.4947 6.0439 23.2191 6.02421 22.945 5.83713C22.4307 5.48479 21.8903 5.1721 21.3286 4.90174C21.0283 4.75897 20.874 4.52923 20.8412 4.33067L20.5475 2.57149C20.4278 1.85282 20.057 1.19994 19.501 0.729053C18.9451 0.258163 18.2401 -0.000182548 17.5116 9.67782e-08H14.4872H14.4855ZM15.9985 22.1538C17.6306 22.1538 19.1959 21.5055 20.35 20.3514C21.504 19.1974 22.1524 17.6321 22.1524 16C22.1524 14.3679 21.504 12.8026 20.35 11.6486C19.1959 10.4945 17.6306 9.84615 15.9985 9.84615C14.3664 9.84615 12.8012 10.4945 11.6471 11.6486C10.493 12.8026 9.84469 14.3679 9.84469 16C9.84469 17.6321 10.493 19.1974 11.6471 20.3514C12.8012 21.5055 14.3664 22.1538 15.9985 22.1538Z" fill="white"/>
</g>
<defs>
<clipPath id="clip0_35_77">
<rect width="32" height="32" fill="white"/>
</clipPath>
</defs>
</svg>
